<svg xmlns="http://www.w3.org/2000/svg" viewBox="0 0 280 320" shape-rendering="crispEdges" image-rendering="pixelated">
  <!-- pixel art egg with Claude's face. 20px cells on a 14x16 grid -->

  <!-- dark outline -->
  <g fill="#9A493B">
    <rect x="100" y="20"  width="80"  height="20"/>
    <rect x="80"  y="40"  width="20"  height="20"/>
    <rect x="180" y="40"  width="20"  height="20"/>
    <rect x="60"  y="60"  width="20"  height="20"/>
    <rect x="200" y="60"  width="20"  height="20"/>
    <rect x="40"  y="80"  width="20"  height="20"/>
    <rect x="220" y="80"  width="20"  height="20"/>
    <rect x="40"  y="100" width="20"  height="20"/>
    <rect x="220" y="100" width="20"  height="20"/>
    <rect x="20"  y="120" width="20"  height="20"/>
    <rect x="240" y="120" width="20"  height="20"/>
    <rect x="20"  y="140" width="20"  height="20"/>
    <rect x="240" y="140" width="20"  height="20"/>
    <rect x="20"  y="160" width="20"  height="20"/>
    <rect x="240" y="160" width="20"  height="20"/>
    <rect x="20"  y="180" width="20"  height="20"/>
    <rect x="240" y="180" width="20"  height="20"/>
    <rect x="20"  y="200" width="20"  height="20"/>
    <rect x="240" y="200" width="20"  height="20"/>
    <rect x="20"  y="220" width="20"  height="20"/>
    <rect x="240" y="220" width="20"  height="20"/>
    <rect x="40"  y="240" width="20"  height="20"/>
    <rect x="220" y="240" width="20"  height="20"/>
    <rect x="60"  y="260" width="20"  height="20"/>
    <rect x="200" y="260" width="20"  height="20"/>
    <rect x="80"  y="280" width="120" height="20"/>
  </g>

  <!-- main egg body (Claude orange) -->
  <g fill="#E08263">
    <rect x="100" y="40"  width="80"  height="20"/>
    <rect x="80"  y="60"  width="120" height="20"/>
    <rect x="60"  y="80"  width="160" height="20"/>
    <rect x="60"  y="100" width="160" height="20"/>
    <rect x="40"  y="120" width="200" height="20"/>
    <rect x="40"  y="140" width="200" height="20"/>
    <rect x="40"  y="160" width="200" height="20"/>
    <rect x="40"  y="180" width="200" height="20"/>
    <rect x="40"  y="200" width="200" height="20"/>
    <rect x="40"  y="220" width="200" height="20"/>
    <rect x="60"  y="240" width="160" height="20"/>
    <rect x="80"  y="260" width="120" height="20"/>
  </g>

  <!-- highlight (light, upper-left arc) -->
  <g fill="#F5B89B">
    <rect x="120" y="40"  width="40"  height="20"/>
    <rect x="100" y="60"  width="40"  height="20"/>
    <rect x="80"  y="80"  width="40"  height="20"/>
    <rect x="80"  y="100" width="20"  height="20"/>
    <rect x="60"  y="120" width="20"  height="20"/>
  </g>

  <!-- inner shadow (softer, lower-right arc — kept away from eyes) -->
  <g fill="#D1765B">
    <rect x="200" y="220" width="20"  height="20"/>
    <rect x="180" y="240" width="40"  height="20"/>
    <rect x="160" y="260" width="40"  height="20"/>
  </g>

  <!-- Claude's signature black square eyes -->
  <g fill="#000000">
    <rect x="60"  y="160" width="40"  height="40"/>
    <rect x="180" y="160" width="40"  height="40"/>
  </g>
</svg>
